<svg xmlns="http://www.w3.org/2000/svg" xmlns:xlink="http://www.w3.org/1999/xlink" viewBox="0,0,256,256" width="42px" height="42px" fill-rule="nonzero"><g fill="#ffdb6e" fill-rule="nonzero" stroke="none" stroke-width="1" stroke-linecap="butt" stroke-linejoin="miter" stroke-miterlimit="10" stroke-dasharray="" stroke-dashoffset="0" font-family="none" font-weight="none" font-size="none" text-anchor="none" style="mix-blend-mode: normal"><g transform="scale(3.2,3.2)"><path d="M34,10c-5.514,0 -10,4.486 -10,10c0,0.553 0.448,1 1,1h14v3h-18c-6.065,0 -11,4.935 -11,11v10c0,6.065 4.935,11 11,11h3v4c0,5.514 4.486,10 10,10h12c5.514,0 10,-4.486 10,-10c0,-0.553 -0.448,-1 -1,-1h-14v-3h18c6.065,0 11,-4.935 11,-11v-10c0,-6.065 -4.935,-11 -11,-11h-3v-4c0,-5.514 -4.486,-10 -10,-10zM34,12h12c4.411,0 8,3.589 8,8v4.87695v0.12305c0,0.553 0.448,1 1,1h4c4.962,0 9,4.037 9,9v10c0,4.963 -4.038,9 -9,9h-19c-0.552,0 -1,0.447 -1,1v5c0,0.553 0.448,1 1,1h13.9375c-0.494,3.94 -3.8655,7 -7.9375,7h-12c-4.411,0 -8,-3.589 -8,-8v-5c0,-0.05557 -0.02255,-0.10317 -0.03125,-0.15625c-0.02903,-0.17715 -0.09799,-0.33601 -0.20703,-0.46875c-0.02029,-0.0247 -0.0302,-0.05744 -0.05273,-0.08008c-0.00062,-0.00068 -0.00134,-0.00128 -0.00195,-0.00195c-0.09234,-0.09227 -0.20363,-0.16616 -0.32617,-0.2168c-0.01926,-0.00796 -0.04265,-0.00495 -0.0625,-0.01172c-0.10138,-0.03458 -0.20529,-0.06445 -0.31836,-0.06445h-0.13086h-3.86914c-4.962,0 -9,-4.037 -9,-9v-10c0,-4.963 4.038,-9 9,-9h19c0.552,0 1,-0.447 1,-1v-5c0,-0.553 -0.448,-1 -1,-1h-13.9375c0.494,-3.94 3.8655,-7 7.9375,-7zM32,14c-1.10457,0 -2,0.89543 -2,2c0,1.10457 0.89543,2 2,2c1.10457,0 2,-0.89543 2,-2c0,-1.10457 -0.89543,-2 -2,-2zM55,27.77734c-0.55,0 -1,0.449 -1,1c0,0.55 0.45,1 1,1c0.55,0 1,-0.45 1,-1c0,-0.551 -0.45,-1 -1,-1zM55.06055,31.64648c-0.55,-0.05 -1.04008,0.35039 -1.08008,0.90039c-0.05,0.55 0.35039,1.03984 0.90039,1.08984h0.08984c0.51,0 0.95,-0.38916 1,-0.91016c0.05,-0.55 -0.36016,-1.02908 -0.91016,-1.08008zM53.45898,35.20898c-0.25375,0.03637 -0.4932,0.16917 -0.6582,0.38867c-0.33,0.44 -0.24078,1.06844 0.19922,1.39844c0.18,0.14 0.38961,0.20117 0.59961,0.20117c0.31,0 0.61078,-0.14039 0.80078,-0.40039c0.33,-0.44 0.23883,-1.07039 -0.20117,-1.40039c-0.22,-0.165 -0.48649,-0.22387 -0.74023,-0.1875zM50.59375,37.51367c-0.13063,-0.00281 -0.26453,0.02172 -0.39453,0.07422v-0.01172c-0.51,0.21 -0.75859,0.79078 -0.55859,1.30078c0.16,0.4 0.52969,0.64063 0.92969,0.64063c0.12,0 0.24914,-0.03031 0.36914,-0.07031v-0.00977c0.51,-0.199 0.76055,-0.78002 0.56055,-1.29102c-0.15,-0.3825 -0.51438,-0.62438 -0.90625,-0.63281zM35.17969,37.99609c-0.55,0 -1,0.45 -1,1c0,0.55 0.45,1 1,1c0.55,0 1,-0.45 1,-1c0,-0.55 -0.45,-1 -1,-1zM39.03906,37.99609c-0.55,0 -1,0.45 -1,1c0,0.55 0.45,1 1,1c0.56,0 1,-0.45 1,-1c0,-0.55 -0.44,-1 -1,-1zM42.90039,37.99609c-0.55,0 -1,0.45 -1,1c0,0.55 0.45,1 1,1c0.56,0 1.00977,-0.45 1.00977,-1c0,-0.55 -0.44976,-1 -1.00977,-1zM46.76953,37.99609c-0.55,0 -1,0.45 -1,1c0,0.55 0.45,1 1,1c0.55,0 1,-0.45 1,-1c0,-0.55 -0.45,-1 -1,-1zM31.2207,38.03711c-0.55,0.05 -0.95039,0.53984 -0.90039,1.08984c0.05,0.519 0.49023,0.90039 0.99023,0.90039h0.09961c0.55,-0.051 0.96039,-0.5408 0.90039,-1.0918c-0.05,-0.549 -0.53984,-0.95944 -1.08984,-0.89844zM27.90039,39.43359c-0.25375,-0.03363 -0.52023,0.02836 -0.74023,0.19336c-0.44,0.33 -0.51945,0.96039 -0.18945,1.40039c0.2,0.26 0.49883,0.39944 0.79883,0.39844c0.21,0 0.41961,-0.06898 0.59961,-0.20898c0.44,-0.33 0.53141,-0.96039 0.19141,-1.40039c-0.165,-0.2195 -0.40641,-0.34919 -0.66016,-0.38281zM25.44141,42.46875c-0.38766,0.01223 -0.75234,0.25422 -0.90234,0.63672c-0.2,0.511 0.05031,1.09202 0.57031,1.29102c0.12,0.051 0.24133,0.07031 0.36133,0.07031c0.4,0 0.77969,-0.24162 0.92969,-0.64062c0.2,-0.511 -0.05031,-1.08906 -0.57031,-1.28906c-0.1275,-0.05025 -0.25945,-0.07244 -0.38867,-0.06836zM25,46.27734c-0.55,0 -1,0.439 -1,1c0,0.55 0.45,1 1,1c0.55,0 1,-0.45 1,-1c0,-0.561 -0.45,-1 -1,-1zM25,50.13672c-0.55,0 -1,0.45 -1,1c0,0.55 0.45,1 1,1c0.55,0 1,-0.45 1,-1c0,-0.55 -0.45,-1 -1,-1zM48,62c-1.10457,0 -2,0.89543 -2,2c0,1.10457 0.89543,2 2,2c1.10457,0 2,-0.89543 2,-2c0,-1.10457 -0.89543,-2 -2,-2z"></path></g></g></svg>